<?xml version="1.0"?>
<svg width="24" height="24" xmlns="http://www.w3.org/2000/svg" xmlns:svg="http://www.w3.org/2000/svg" data-name="Layer 1">
 <g class="layer">
  <title>Layer 1</title>
  <path d="m20,0.35c2.33,0.83 4,3.04 4,5.65l0,3l-4,0l0,-8.65zm-14,8.65l3,0c0,-1.65 1.35,-3 3,-3s3,1.35 3,3l3,0l0,-9l-12,0l0,9zm9,2l0,4l-6,0l0,-4l-9,0l0,13l4,0l0,-11l2,0l0,11l12,0l0,-11l2,0l0,11l4,0l0,-13l-9,0zm-4,-2l0,4l2,0l0,-4c0,-0.55 -0.45,-1 -1,-1s-1,0.45 -1,1zm-7,0l0,-8.65c-2.33,0.83 -4,3.04 -4,5.65l0,3l4,0z" fill="#007f7f" id="svg_1"/>
 </g>
</svg>